<svg viewBox="0 0 32 32" xmlns="http://www.w3.org/2000/svg" aria-hidden="true">
  <g>
    <path fill="#08e9f5" d="M12.98 20.54l11.175-8.19c.547-.4 1.33-.244 1.591.38 1.374 3.288.76 7.241-1.973 9.955-2.733 2.714-6.536 3.31-10.012 1.954l-3.797 1.745c5.446 3.697 12.06 2.782 16.193-1.324 3.278-3.255 4.293-7.692 3.344-11.693l.008.009c-1.376-5.878.339-8.227 3.852-13.031l.25-.345-4.624 4.59v-.014l-16.01 15.968m-2.302 1.987c-3.91-3.707-3.235-9.446.1-12.755 2.467-2.449 6.508-3.448 10.036-1.979l3.788-1.737c-.682-.49-1.557-1.017-2.561-1.387-4.537-1.854-9.97-.931-13.658 2.728-3.547 3.523-4.663 8.94-2.747 13.561 1.431 3.454-.915 5.898-3.278 8.364C1.517 30.2.677 31.074 0 32l10.672-9.466"/>
  </g>
</svg>
